# xmcd
#
# Track frame offsets:
#	150
#	16529
#	32843
#	50729
#	74732
#	94913
#	117235
#	133632
#	149038
#	173315
#	199587
#	234678
#
# Disc length: 3423 seconds
# Revision: 1
# Processed by: cddbd v1.5.2PL0 Copyright (c) Steve Scherf et al.
# Submitted via: dBpowerAMP V12.0
#
DISCID=aa0d5d0c
DTITLE=Mario Biondi - Change of scenes
DYEAR=2011
DGENRE=Soul
TTITLE0=A little piece of my life
TTITLE1=No mercy for me
TTITLE2=On a clear day
TTITLE3=A handful of soul
TTITLE4=I'm her daddy
TTITLE5=This is what you are
TTITLE6=I can't keep from cryin' sometimes
TTITLE7=I can't keep from cryin' sometimes
TTITLE8=Slow hot wind
TTITLE9=Rio de Janeiro blue
TTITLE10=This is what you are
TTITLE11=But not for you
EXTD=
EXTT0=
EXTT1=
EXTT2=
EXTT3=
EXTT4=
EXTT5=
EXTT6=
EXTT7=
EXTT8=
EXTT9=
EXTT10=
EXTT11=
PLAYORDER=
